<?xml version="1.0" encoding="utf-8"?>
<!DOCTYPE svg PUBLIC "-//W3C//DTD SVG 1.1//EN" "http://www.w3.org/Graphics/SVG/1.1/DTD/svg11.dtd">
<svg version="1.1" id="Layer_1" xmlns="http://www.w3.org/2000/svg" xmlns:xlink="http://www.w3.org/1999/xlink" x="0px" y="0px"
	 viewBox="514.795 2.5989 1592.2849 1590.3107" enable-background="new 514.795 2.5989 1592.2849 1590.3107" xml:space="preserve">
<rect x="514.795" y="2.5989" width="1592.2849" height="1590.3107"/>
<title>Layer 1</title>
<g>
	<g>
		<radialGradient id="SVGID_1_" cx="838.7305" cy="628.6158" r="116.1626" gradientUnits="userSpaceOnUse">
			<stop  offset="0" style="stop-color:#FCF3DD"/>
			<stop  offset="0" style="stop-color:#FDEDC1"/>
			<stop  offset="0" style="stop-color:#FFE18A"/>
			<stop  offset="0.5506" style="stop-color:#FFCD03"/>
			<stop  offset="0.668" style="stop-color:#F7C50D"/>
			<stop  offset="1" style="stop-color:#E2B124"/>
		</radialGradient>
		<path fill="url(#SVGID_1_)" d="M930.235,704.2679c-46.1029-10.4258-87.8292-25.5074-120.059-50.6914
			c86.6978,3.3394,146.4504-59.4409,170.8518-107.052c-27.915,26.6289-78.8297,78.6534-146.7964,74.4205
			c-15.3848-0.9579-23.0519-11.2717-26.6605-22.7982c-1.7341,8.087-11.6208,23.9172-26.0861,20.4022
			c-26.9227-6.542-55.1025-22.2265-85.0515-46.507C742.6688,694.3077,825.5229,726.2465,930.235,704.2679z"/>
		<linearGradient id="SVGID_2_" gradientUnits="userSpaceOnUse" x1="696.4333" y1="628.6158" x2="981.0278" y2="628.6158">
			<stop  offset="0" style="stop-color:#009E54"/>
			<stop  offset="0.2" style="stop-color:#FDE92B"/>
			<stop  offset="0.4" style="stop-color:#EB2D2E"/>
			<stop  offset="0.6" style="stop-color:#E91388"/>
			<stop  offset="0.8" style="stop-color:#333391"/>
			<stop  offset="1" style="stop-color:#00A8DE"/>
		</linearGradient>
		<path fill="url(#SVGID_2_)" d="M961.7728,570.1067c-12.1053,16.6772-26.9939,32.0657-43.0219,44.2166
			c-14.4302,10.9397-29.8908,19.4869-45.9521,25.4045c-17.9679,6.6199-36.81,9.9765-56.0027,9.9765
			c-2.1393,0-4.3148-0.042-6.466-0.1249l-12.3758-0.4766l9.759,7.6255c25.9271,20.259,59.0393,35.3622,103.2335,46.9572
			c-13.379,2.0079-26.2177,3.0215-38.3438,3.0215c-19.2427,0-37.3354-2.5535-53.7756-7.5894
			c-16.9931-5.2053-32.7841-13.2363-46.9343-23.87c-14.66-11.0166-28.0394-25.1853-39.7667-42.1124
			c-9.7755-14.11-18.6459-30.4846-26.4569-48.8224c26.545,19.8464,51.1417,32.357,74.8711,38.123
			c1.6785,0.4078,3.3748,0.6147,5.0419,0.6147c10.0402,0,17.6346-7.3558,22.0008-14.6869
			c5.6981,10.1626,14.6837,15.8441,26.3997,16.5736c2.676,0.1666,5.3892,0.2511,8.0641,0.2511
			C892.7738,625.1884,933.2608,595.6707,961.7728,570.1067 M981.0278,546.5244c-26.8331,25.5968-74.9276,74.664-138.9809,74.664
			c-2.5826,0-5.1813-0.0793-7.8155-0.2434c-15.3848-0.9579-23.0519-11.2717-26.6605-22.7982
			c-1.565,7.2982-9.7709,20.9037-21.9886,20.9037c-1.3204,0-2.6866-0.1588-4.0975-0.5016
			c-26.9227-6.542-55.1025-22.2265-85.0515-46.507c37.3829,98.8558,98.7114,138.6651,176.1696,138.6651
			c18.3427,0,37.5832-2.231,57.6321-6.4392c-46.1029-10.4258-87.8292-25.5074-120.059-50.6914
			c2.2225,0.0856,4.433,0.1279,6.62,0.1279C899.9199,653.7043,957.252,592.9151,981.0278,546.5244L981.0278,546.5244z"/>
	</g>
	<g>
		<radialGradient id="SVGID_3_" cx="887.8386" cy="743.5948" r="91.886" gradientUnits="userSpaceOnUse">
			<stop  offset="0" style="stop-color:#FCF3DD"/>
			<stop  offset="0" style="stop-color:#FDEDC1"/>
			<stop  offset="0" style="stop-color:#FFE18A"/>
			<stop  offset="0.5506" style="stop-color:#FFCD03"/>
			<stop  offset="0.668" style="stop-color:#F7C50D"/>
			<stop  offset="1" style="stop-color:#E2B124"/>
		</radialGradient>
		<path fill="url(#SVGID_3_)" d="M972.0167,780.8329c-30.1614,22.6361-68.0603,15.613-84.7198-1.0993
			c67.9954-26.798,87.2172-69.9261,104.8994-113.5698c-40.3801,63.8769-130.0278,113.046-208.7153,79.8162
			C834.6201,833.6358,931.6773,843.4977,972.0167,780.8329z"/>
		<linearGradient id="SVGID_4_" gradientUnits="userSpaceOnUse" x1="783.481" y1="743.5948" x2="992.1962" y2="743.5948">
			<stop  offset="0" style="stop-color:#009E54"/>
			<stop  offset="0.2" style="stop-color:#FDE92B"/>
			<stop  offset="0.4" style="stop-color:#EB2D2E"/>
			<stop  offset="0.6" style="stop-color:#E91388"/>
			<stop  offset="0.8" style="stop-color:#333391"/>
			<stop  offset="1" style="stop-color:#00A8DE"/>
		</linearGradient>
		<path fill="url(#SVGID_4_)" d="M975.1661,695.0959c-5.5049,11.1296-11.7429,21.6564-19.6876,31.6863
			c-16.8782,21.308-39.6603,37.4113-69.6483,49.23l-5.6652,2.2327l4.299,4.3127c10.384,10.4169,27.1335,16.6359,44.8049,16.6359
			c9.1714,0,18.1188-1.6555,26.5433-4.8661c-5.4149,5.187-11.4675,9.5541-18.1161,13.0627
			c-12.1159,6.3937-25.5939,9.6357-40.0594,9.6357c-19.8459,0-40.254-6.2328-59.0181-18.0245
			c-17.2818-10.8603-32.8496-26.3433-45.4965-45.1636c13.9855,4.5373,28.6333,6.8312,43.6919,6.8312
			C886.5276,760.6688,938.8222,735.2178,975.1661,695.0959 M992.1962,666.1639c-31.4212,49.705-92.6752,90.505-155.3823,90.505
			c-17.8791,0-35.8751-3.3164-53.3329-10.6888c29.3806,50.3604,73.9255,75.0458,114.1556,75.0458
			c29.7933,0,57.2167-13.5305,74.3801-40.1929c-13.562,10.1782-28.6915,14.3605-42.7479,14.3605
			c-17.2047,0-32.8033-6.2621-41.972-15.4598C955.2922,752.9357,974.514,709.8075,992.1962,666.1639L992.1962,666.1639z"/>
	</g>
	<g>
		<radialGradient id="SVGID_5_" cx="931.3652" cy="855.672" r="84.7426" gradientUnits="userSpaceOnUse">
			<stop  offset="0" style="stop-color:#FCF3DD"/>
			<stop  offset="0" style="stop-color:#FDEDC1"/>
			<stop  offset="0" style="stop-color:#FFE18A"/>
			<stop  offset="0.5506" style="stop-color:#FFCD03"/>
			<stop  offset="0.668" style="stop-color:#F7C50D"/>
			<stop  offset="1" style="stop-color:#E2B124"/>
		</radialGradient>
		<path fill="url(#SVGID_5_)" d="M1014.6151,877.6773c-21.8508,8.9386-35.8324,13.3327-50.0174-1.2015
			c39.1894-27.4023,55.3267-69.064,56.0551-100.7435c-17.7637,54.1788-108.5076,125.403-178.575,129.6435
			C928.9303,961.5765,977.2811,931.9118,1014.6151,877.6773z"/>
		<linearGradient id="SVGID_6_" gradientUnits="userSpaceOnUse" x1="842.0778" y1="855.6721" x2="1020.6528" y2="855.6721">
			<stop  offset="0" style="stop-color:#009E54"/>
			<stop  offset="0.2" style="stop-color:#FDE92B"/>
			<stop  offset="0.4" style="stop-color:#EB2D2E"/>
			<stop  offset="0.6" style="stop-color:#E91388"/>
			<stop  offset="0.8" style="stop-color:#333391"/>
			<stop  offset="1" style="stop-color:#00A8DE"/>
		</linearGradient>
		<path fill="url(#SVGID_6_)" d="M1013.0878,800.501c-6.4087,24.8691-21.93,52.5223-50.7823,72.6967l-3.8613,2.7l3.2909,3.3719
			c7.0909,7.2654,14.5295,10.6494,23.4096,10.6494c5.7404,0,11.8072-1.4581,18.2793-3.6652
			c-9.8691,12.7667-19.7343,22.564-29.9443,29.7662c-14.8729,10.4915-30.5295,15.5916-47.8646,15.5916
			c-21.3967,0-44.8942-7.7094-71.5764-23.5228c30.8427-4.7927,66.3566-21.0072,99.332-45.6014
			C979.083,843.3101,1000.0662,821.3518,1013.0878,800.501 M1020.6528,775.7324c-17.7637,54.1788-108.5076,125.403-178.575,129.6435
			c32.856,21.2605,60.2131,30.2358,83.5372,30.2358c38.3316,0,65.7894-24.2166,89.0001-57.9344
			c-11.6522,4.7667-21.0695,8.2417-29.4703,8.2417c-7.3528,0-13.9264-2.6595-20.5471-9.4432
			C1003.787,849.0735,1019.9244,807.4119,1020.6528,775.7324L1020.6528,775.7324z"/>
	</g>
	<g>
		<radialGradient id="SVGID_7_" cx="997.7068" cy="946.2665" r="68.1822" gradientUnits="userSpaceOnUse">
			<stop  offset="0" style="stop-color:#FCF3DD"/>
			<stop  offset="0" style="stop-color:#FDEDC1"/>
			<stop  offset="0" style="stop-color:#FFE18A"/>
			<stop  offset="0.5506" style="stop-color:#FFCD03"/>
			<stop  offset="0.668" style="stop-color:#F7C50D"/>
			<stop  offset="1" style="stop-color:#E2B124"/>
		</radialGradient>
		<path fill="url(#SVGID_7_)" d="M1010.6801,980.9294c29.8049-17.7497,44.5516-68.0325,39.8386-95.8687
			c-23.7313,51.6902-72.119,102.1935-127.3199,105.417c53.1766,26.0505,110.693,23.1095,149.0162-15.4789
			C1046.5352,982.2251,1027.2482,989.6683,1010.6801,980.9294z"/>
		<linearGradient id="SVGID_8_" gradientUnits="userSpaceOnUse" x1="923.1987" y1="946.2665" x2="1072.215" y2="946.2665">
			<stop  offset="0" style="stop-color:#009E54"/>
			<stop  offset="0.2" style="stop-color:#FDE92B"/>
			<stop  offset="0.4" style="stop-color:#EB2D2E"/>
			<stop  offset="0.6" style="stop-color:#E91388"/>
			<stop  offset="0.8" style="stop-color:#333391"/>
			<stop  offset="1" style="stop-color:#00A8DE"/>
		</linearGradient>
		<path fill="url(#SVGID_8_)" d="M1047.2709,900.412c-0.5446,10.9492-3.1389,23.3576-7.4745,34.9659
			c-7.2961,19.5355-18.3634,34.4922-31.1629,42.1147l-6.1262,3.6483l6.3066,3.3265c5.636,2.9728,11.8135,4.4178,18.8855,4.4178
			c8.5656,0,17.6807-2.0988,27.8037-4.9216c-18.0375,12.8159-39.6565,19.5087-63.4498,19.5087
			c-17.5551,0-36.0582-3.738-54.1935-10.8892C984.2906,983.1501,1024.1294,942.6831,1047.2709,900.412 M1050.5187,885.0607
			c-23.7313,51.6902-72.119,102.1935-127.3199,105.417c22.7714,11.1554,46.3395,16.9946,68.8546,16.9946
			c30.0629,0,58.2493-10.4096,80.1616-32.4736c-17.3884,4.8931-31.8486,9.8865-44.5155,9.8865
			c-6.04,0-11.6699-1.1343-17.0193-3.9559C1040.485,963.1797,1055.2317,912.8969,1050.5187,885.0607L1050.5187,885.0607z"/>
	</g>
	<g>
		<radialGradient id="SVGID_9_" cx="1182.9906" cy="1249.5304" r="151.1829" gradientUnits="userSpaceOnUse">
			<stop  offset="0" style="stop-color:#FCF3DD"/>
			<stop  offset="0" style="stop-color:#FDEDC1"/>
			<stop  offset="0" style="stop-color:#FFE18A"/>
			<stop  offset="0.5506" style="stop-color:#FFCD03"/>
			<stop  offset="0.668" style="stop-color:#F7C50D"/>
			<stop  offset="1" style="stop-color:#E2B124"/>
		</radialGradient>
		<path fill="url(#SVGID_9_)" d="M1228.2275,1040.5658c-16.5807,89.3622-57.772,165.6495-78.9132,252.4636
			c-14.4083,59.1659-17.5493,162.2306,3.3884,165.3075c31.3572,4.6254,38.8845-93.4706,51.8116-149.3531
			c-9.1573,20.7517-19.39,53.9193-32.911,50.1245c-21.7593-6.1068,5.2997-113.9436,19.174-167.0975
			C1201.4188,1151.2426,1221.4821,1095.0872,1228.2275,1040.5658z"/>
		<linearGradient id="SVGID_10_" gradientUnits="userSpaceOnUse" x1="1137.7537" y1="1249.5304" x2="1228.2275" y2="1249.5304">
			<stop  offset="0" style="stop-color:#009E54"/>
			<stop  offset="0.2" style="stop-color:#FDE92B"/>
			<stop  offset="0.4" style="stop-color:#EB2D2E"/>
			<stop  offset="0.6" style="stop-color:#E91388"/>
			<stop  offset="0.8" style="stop-color:#333391"/>
			<stop  offset="1" style="stop-color:#00A8DE"/>
		</linearGradient>
		<path fill="url(#SVGID_10_)" d="M1188.77,1184.0435c-0.6475,2.3645-1.2698,4.6844-1.863,6.9572
			c-7.7856,29.8279-17.4386,68.3248-23.0238,101.5383c-7.6138,45.2766-5.566,66.9951,6.6394,70.4205
			c1.0593,0.2974,2.14,0.4481,3.2122,0.4481c7.8856,0,14.1244-7.8733,19.6652-18.6169c-0.4663,2.6127-0.9348,5.2563-1.4075,7.9231
			c-4.4568,25.1464-9.0653,51.1489-15.3383,70.8823c-6.5177,20.5029-13.8643,30.8988-21.8358,30.8988
			c-0.4988,0-1.0142-0.0387-1.5341-0.1154c-1.0872-0.1598-2.2103-1.0892-3.338-2.7626c-5.9039-8.7605-8.9113-33.4865-8.0447-66.1418
			c0.8411-31.6946,5.0651-65.8998,11.2992-91.4991C1162.4357,1256.0538,1175.7734,1219.4558,1188.77,1184.0435 M1228.2275,1040.5659
			c-16.5807,89.3622-57.772,165.6494-78.9132,252.4635c-14.4083,59.1659-17.5493,162.2307,3.3884,165.3076
			c0.7158,0.1056,1.4243,0.1578,2.1156,0.1578c29.5931,0,37.064-94.9042,49.696-149.511
			c-8.6694,19.6459-18.3049,50.4237-30.7797,50.4237c-0.702,0-1.4109-0.097-2.1313-0.2993
			c-21.7593-6.1068,5.2997-113.9436,19.174-167.0974C1201.4188,1151.2427,1221.4821,1095.0872,1228.2275,1040.5659
			L1228.2275,1040.5659z"/>
	</g>
	<g>
		<radialGradient id="SVGID_11_" cx="1318.3613" cy="353.9263" r="162.3754" gradientUnits="userSpaceOnUse">
			<stop  offset="0" style="stop-color:#FCF3DD"/>
			<stop  offset="0" style="stop-color:#FDEDC1"/>
			<stop  offset="0" style="stop-color:#FFE18A"/>
			<stop  offset="0.5506" style="stop-color:#FFCD03"/>
			<stop  offset="0.668" style="stop-color:#F7C50D"/>
			<stop  offset="1" style="stop-color:#E2B124"/>
		</radialGradient>
		<path fill="url(#SVGID_11_)" d="M1213.7697,400.648c2.8744,52.5942-14.8645,64.6154-41.4863,74.3674
			c34.4475-0.2378,48.4731-0.5559,62.9559-63.7864c11.6372-50.8071-32.3113-142.9567-32.3113-142.9567
			c20.9111,17.4,37.1005,22.0483,62.4376,23.8898c2.9396,16.5657,14.9954,28.7096,29.7852,38.3599
			c-3.3955-14.8508-6.9058-33.29-11.5063-38.1646c19.8894,0.2845,38.1624,16.262,66.4138,60.375
			c39.9236,62.3386,103.7416,76.4268,163.4156,86.7937c-81.3915-25.9451-129.4165-85.1677-167.3593-154.4456
			c-34.7366-44.3147-63.7058-35.2766-92.1328-21.2241c-35.0823-24.3813-79.2534-49.0459-113.7169-12.4043
			c-13.0099,13.8319-19.9532,37.0906-15.829,52.7002C1186.0388,265.4258,1208.4351,352.5129,1213.7697,400.648z"/>
		<linearGradient id="SVGID_12_" gradientUnits="userSpaceOnUse" x1="1123.2487" y1="353.9262" x2="1513.4739" y2="353.9262">
			<stop  offset="0" style="stop-color:#009E54"/>
			<stop  offset="0.2" style="stop-color:#FDE92B"/>
			<stop  offset="0.4" style="stop-color:#EB2D2E"/>
			<stop  offset="0.6" style="stop-color:#E91388"/>
			<stop  offset="0.8" style="stop-color:#333391"/>
			<stop  offset="1" style="stop-color:#00A8DE"/>
		</linearGradient>
		<path fill="url(#SVGID_12_)" d="M1181.1093,236.837c23.7799,0.0004,49.0281,15.3192,70.5898,30.3041l1.9388,1.3474l2.1165-1.0463
			c11.6713-5.7695,24.2303-11.1084,36.9893-11.1073c17.5022,0.0013,33.4033,9.8403,50.0216,30.957
			c26.8071,48.8969,65.3029,106.4955,131.3898,140.3656c-16.3296-3.8673-32.6112-8.7864-48.1724-15.6948
			c-31.2545-13.8757-54.9878-33.9557-72.556-61.3876c-14.5253-22.6804-26.2926-37.7538-37.0326-47.4368
			c-11.0054-9.9224-21.3937-14.6189-32.6924-14.7806l-9.4601-0.1353l6.4939,6.8804c2.8417,3.0109,5.8416,15.4561,8.2115,26.0115
			c-11.2714-9.0775-17.7247-18.8409-19.6429-29.6511l-0.5439-3.0649l-3.1046-0.2257c-23.6602-1.7195-39.4623-5.745-60.1691-22.9751
			l-14.0206-11.6664l7.8518,16.463c0.4335,0.9091,43.2194,91.4578,32.0226,140.3418c-6.8387,29.8574-13.6132,45.808-22.6519,53.3347
			c-4.4882,3.7374-9.8195,5.5439-16.1938,6.433c16.4666-10.21,27.5541-27.8657,25.2692-69.674l-0.0061-0.1115l-0.0123-0.1108
			c-1.6774-15.1361-6.1467-44.2505-17.2329-69.1772c-11.9622-26.8965-27.915-40.5341-47.4153-40.5337
			c-8.0793,0.0001-16.7025,2.4513-25.6995,7.297c-1.2142-13.9703,5.2228-32.3755,15.781-43.6008
			C1154.1631,242.5139,1166.5703,236.8368,1181.1093,236.837 M1181.1093,232.837c-14.3015-0.0002-28.2235,5.1965-40.8444,18.6151
			c-13.0099,13.8319-19.9532,37.0906-15.829,52.7002c10.697-6.7247,20.2125-9.6558,28.6611-9.6559
			c40.2059-0.0007,56.2643,66.3748,60.6726,106.1515c2.8744,52.5942-14.8645,64.6154-41.4863,74.3674
			c34.4475-0.2378,48.4731-0.5559,62.9559-63.7864c11.6372-50.8071-32.3113-142.9567-32.3113-142.9567
			c20.9111,17.4,37.1005,22.0483,62.4376,23.8898c2.9396,16.5657,14.9954,28.7096,29.7852,38.3599
			c-3.3955-14.8508-6.9058-33.29-11.5063-38.1646c19.8894,0.2845,38.1624,16.262,66.4138,60.375
			c39.9236,62.3386,103.7416,76.4268,163.4156,86.7937c-81.3915-25.9451-129.4165-85.1677-167.3593-154.4456
			c-19.2659-24.5781-36.7615-32.7444-53.3706-32.7456c-13.3374-0.0011-26.1016,5.2628-38.7622,11.5215
			C1231.7471,248.4038,1205.8605,232.8374,1181.1093,232.837L1181.1093,232.837z"/>
	</g>
	<g>
		<radialGradient id="SVGID_13_" cx="1367.3583" cy="403.1926" r="49.9448" gradientUnits="userSpaceOnUse">
			<stop  offset="0" style="stop-color:#FCF3DD"/>
			<stop  offset="0" style="stop-color:#FDEDC1"/>
			<stop  offset="0" style="stop-color:#FFE18A"/>
			<stop  offset="0.5506" style="stop-color:#FFCD03"/>
			<stop  offset="0.668" style="stop-color:#F7C50D"/>
			<stop  offset="1" style="stop-color:#E2B124"/>
		</radialGradient>
		<path fill="url(#SVGID_13_)" d="M1420.8685,447.9776c-45.0172-14.7109-83.9453-51.7734-107.0205-90.8894
			C1317.4381,404.3809,1367.5189,458.4693,1420.8685,447.9776z"/>
		<linearGradient id="SVGID_14_" gradientUnits="userSpaceOnUse" x1="1313.848" y1="403.1926" x2="1420.8685" y2="403.1926">
			<stop  offset="0" style="stop-color:#009E54"/>
			<stop  offset="0.2" style="stop-color:#FDE92B"/>
			<stop  offset="0.4" style="stop-color:#EB2D2E"/>
			<stop  offset="0.6" style="stop-color:#E91388"/>
			<stop  offset="0.8" style="stop-color:#333391"/>
			<stop  offset="1" style="stop-color:#00A8DE"/>
		</linearGradient>
		<path fill="url(#SVGID_14_)" d="M1322.1931,377.1014c21.7443,29.9833,50.2968,54.1033,80.5675,68.0413
			c-19.8226-1.3375-39.5675-11.3379-56.0608-28.4993C1335.5739,405.0669,1327.0486,391.147,1322.1931,377.1014 M1313.848,357.0881
			c3.2839,43.2603,45.4717,92.2089,93.4751,92.2089c4.4745,0,8.9965-0.4248,13.5454-1.3195
			C1375.8513,433.2666,1336.9232,396.2041,1313.848,357.0881L1313.848,357.0881z"/>
	</g>
	<g>
		<radialGradient id="SVGID_15_" cx="1317.2733" cy="561.6014" r="156.6902" gradientUnits="userSpaceOnUse">
			<stop  offset="0" style="stop-color:#FCF3DD"/>
			<stop  offset="0" style="stop-color:#FDEDC1"/>
			<stop  offset="0" style="stop-color:#FFE18A"/>
			<stop  offset="0.5506" style="stop-color:#FFCD03"/>
			<stop  offset="0.668" style="stop-color:#F7C50D"/>
			<stop  offset="1" style="stop-color:#E2B124"/>
		</radialGradient>
		<path fill="url(#SVGID_15_)" d="M1203.4327,524.326c47.506,63.9657,78.729,144.4833,107.6008,227.3911
			c18.1096-111.9359,64.1431-194.5401,120.0803-266.7411c-70.8066,2.3965-121.6344-40.991-163.4321-105.072
			c9.2083,39.3441,45.9631,92.1699,101.5747,148.2603c-22.9296,24.2451-52.5902,64.7033-67.9539,108.5226
			c-9.7087-34.7702-27.4193-74.6316-54.4128-105.058c26.5408-52.2439,25.4623-105.6516-1.3115-160.1428
			C1266.1179,441.2198,1248.4552,490.2032,1203.4327,524.326z"/>
		<linearGradient id="SVGID_16_" gradientUnits="userSpaceOnUse" x1="1203.4327" y1="561.6014" x2="1431.1139" y2="561.6014">
			<stop  offset="0" style="stop-color:#009E54"/>
			<stop  offset="0.2" style="stop-color:#FDE92B"/>
			<stop  offset="0.4" style="stop-color:#EB2D2E"/>
			<stop  offset="0.6" style="stop-color:#E91388"/>
			<stop  offset="0.8" style="stop-color:#333391"/>
			<stop  offset="1" style="stop-color:#00A8DE"/>
		</linearGradient>
		<path fill="url(#SVGID_16_)" d="M1281.5266,406.5405c42.1082,55.2704,87.6113,81.6854,141.4207,82.5099
			c-61.0895,80.4524-96.454,157.4681-113.2152,246.8593c-24.9293-70.6102-55.499-148.6399-100.7689-210.8148
			c34.838-27.7336,51.1545-64.1023,48.7919-108.522c2.8431,12.0854,4.3401,24.0671,4.4722,35.8719
			c0.2919,26.0747-6.0682,52.1064-18.9037,77.3722l-1.2336,2.4286l1.8077,2.0377c31.3088,35.2904,46.991,79.9807,53.5524,103.4792
			l3.4199,12.2478l4.2074-12.0001c18.6964-53.3245,56.0747-95.4553,67.0853-107.0976l2.6615-2.8142l-2.7272-2.7506
			C1328.7067,481.5839,1297.4924,440.4899,1281.5266,406.5405 M1245.5782,371.4858c20.5397,69.7339,2.877,118.7173-42.1455,152.8401
			c47.506,63.9658,78.729,144.4833,107.6008,227.3911c18.1096-111.9359,64.1431-194.5402,120.0803-266.7412
			c-1.8627,0.063-3.7233,0.0945-5.5585,0.0945c-67.9279,0-117.1754-42.7711-157.8737-105.1665
			c9.2083,39.3441,45.9631,92.1699,101.5747,148.2603c-22.9296,24.2451-52.5902,64.7034-67.9539,108.5226
			c-9.7087-34.7702-27.4193-74.6317-54.4128-105.058C1273.4305,479.3848,1272.3521,425.9771,1245.5782,371.4858L1245.5782,371.4858z
			"/>
	</g>
	<g>
		<radialGradient id="SVGID_17_" cx="1310.9375" cy="797.7542" r="789.9279" gradientUnits="userSpaceOnUse">
			<stop  offset="0" style="stop-color:#FCF3DD"/>
			<stop  offset="0" style="stop-color:#FDEDC1"/>
			<stop  offset="0" style="stop-color:#FFE18A"/>
			<stop  offset="0.5506" style="stop-color:#FFCD03"/>
			<stop  offset="0.668" style="stop-color:#F7C50D"/>
			<stop  offset="1" style="stop-color:#E2B124"/>
		</radialGradient>
		<path fill="url(#SVGID_17_)" d="M1981.4779,332.3127c-13.354,6.0443-38.1765,15.3174-38.1765,15.3174
			c-5.0581-6.1907-8.3022-8.7574-18.8867-7.9708c-8.8876,0.6606-13.1589,8.0176-17.4238,16.3811
			c-59.7809,22.3136-115.5049,35.6799-182.4177,48.5905c88.6342-1.5734,239.1168-9.8021,323.785-74.5885
			c43.1958-33.0476,44.0344-87.5012,53.988-132.3904c-29.6985,51.0286-72.5625,77.3347-139.1373,65.9812
			c-32.9495-5.6191-69.8907-3.027-105.5706,3.8977c56.634-52.8042,72.7837-102.6171,82.1002-156.9048
			c-31.9806,56.8442-39.1647,113.4919-148.4606,157.2351c-68.9026,27.5746-128.5012,73.9924-187.9116,117.6235
			c-3.9229-2.363-7.7107-5.9039-10.915-10.2781c-8.1281-11.0957-12.4957-27.5607-5.7482-43.821
			c37.2468-48.4612,77.6469-97.3027,127.1425-136.788c23.4702-4.7877,46.9406-7.7484,70.3977-21.9664
			c-10.8833,55.8442-70.8853,95.6252-115.4137,140.469c159.7797-89.6498,197.371-194.1853,193.3466-303.7902
			c-31.9482,74.339-56.8942,150.0555-165.0005,162.8732c-85.9491,51.9583-131.7583,148.7935-203.8206,217.4893
			c20.826-0.0978,59.8816,4.6094,54.1311,28.2285c-1.0981,4.5105-3.8215,9.707-8.6273,15.6953
			c-25.6976,32.0187-49.016,63.3678-69.7943,94.2915c-46.8621,69.7429-80.7587,137.3145-99.5685,205.4696
			c27.6376-42.0319,53.4679-75.7927,91.1113-98.2707c-36.9043,58.1346-92.2924,133.0526-130.5577,202.5841
			c-6.312,11.4693-12.1746,22.7973-17.3939,33.8737c-3.3616-7.0139-7.0079-14.1398-10.8752-21.3438
			c-39.0979-72.83-101.6959-153.9734-140.5106-215.1142c37.6433,22.4785,63.4705,56.2393,91.1104,98.2697
			c-14.6909-53.2313-38.5964-106.1081-70.6803-159.9403c-27.2083-45.6514-60.2931-91.9895-98.6797-139.8195
			c-8.0138-9.9851-10.2589-17.7772-8.7789-23.8358c4.0554-16.6018,36.1085-20.1736,54.2766-20.0884
			c-72.0601-68.6956-117.8675-165.5304-203.8195-217.4889C816.5953,159.3653,791.6463,83.649,759.6979,9.31
			c-4.0245,109.6049,33.5687,214.14,193.3461,303.7904c-44.5231-44.8438-104.5295-84.6249-115.4092-140.4695
			c23.4561,14.2179,46.9271,17.179,70.3958,21.9668c49.4968,39.4849,89.8929,88.3269,127.1428,136.7881
			c7.6885,18.5286,0.9452,37.3201-9.3495,48.1326c-2.3013,2.417-4.7782,4.4395-7.3131,5.9664
			c-59.4103-43.6312-119.0101-90.0488-187.9098-117.6233c-109.301-43.7433-116.4808-100.391-148.4664-157.2352
			c9.3201,54.2876,25.4708,104.1001,82.1026,156.9045c-35.6802-6.9244-72.6205-9.5171-105.5716-3.8975
			c-66.5722,11.3534-109.4385-14.9531-139.1368-65.9814c9.9531,44.8894,10.796,99.343,53.9865,132.3904
			c84.6705,64.7861,235.1567,73.0151,323.7894,74.5886c-66.9155-12.9103-122.6399-26.2769-182.418-48.5906
			c-4.2669-8.3638-8.5373-15.7208-17.4267-16.3811c-10.5827-0.7864-13.8286,1.78-18.8871,7.9709c0,0-24.8205-9.2729-38.1745-15.3174
			c-11.0573-5.0049-20.3872-10.8036-26.832-18.0059c7.925-2.0117,18.1714-3.4651,26.135-4.5328
			c52.7305-7.0714,166.0125-25.2799,215.5471,11.5565c89.7075,60.6415,161.0629,106.9712,228.7563,190.319
			c4.912,6.0477,16.9447,25.3969,21.1079,40.8086c1.4691,5.4388,1.9667,10.3912,0.8137,14.0902
			c-18.8458-3.45-50.9027-26.0254-76.0284-46.3286c-9.9987-8.0793-18.9029-15.8-25.4354-21.8108
			c-40.9331-37.6643-142.916-71.7537-247.2108-81.5996c-59.3305,11.1075-127.3859-6.9407-186.3733-17.7034
			c73.7745,131.1892,209.275,152.6591,354.9426,156.057c-83.313-12.3993-144.9771-46.0062-186.3863-92.4758
			c74.9979-13.0214,195.6761,13.1125,258.4789,75.8534c4.0945,4.0906,7.9467,8.3342,11.5204,12.7352
			c1.2762,12.2489,2.5444,24.4976,3.8793,36.7469c12.3152,113.013,30.389,226.0709,114.4865,339.6458
			c-18.3961,52.9639-58.5648,99.5972-104.1547,138.1179c62.5857-18.9583,110.8485-73.8154,135.0671-148.6185
			c-79.5592-109.0187-98.4888-210.4832-107.6918-310.7357c-0.4517-4.9202-0.88-9.8376-1.2908-14.7527l39.5809,31.3148
			c-3.2244,109.2894,36.8113,218.6366,120.1631,328.0414c1.1106,1.4578,2.2246,2.9155,3.3506,4.3733
			c-33.3453,67.8819-69.3536,133.8217-97.332,205.6178c-25.037,52.5939-61.4575,120.5651-43.1122,163.1591
			c38.3579-2.7426,55.0704-35.8744,68.4386-73.7017c-23.0042,19.2358-43.2668,30.608-32.3423-7.6769
			c27.6804-97.0048,74.8674-188.3041,116.5422-285.9008c-2.1353-3.4446-4.2341-6.8884-6.3037-10.3307
			c-56.4587-93.9102-88.1853-186.6933-78.0669-262.8336c51.8949,59.0699,88.7922,131.7886,122.7192,207.2103
			c4.5366,10.0849,9.0219,20.2165,13.4808,30.3719c-43.0454,222.084-88.3669,441.1907,27.4286,660.6334l2.0122,4.2406
			c115.7974-219.4435,81.7817-442.7878,38.7422-664.871c7.3386-16.7143,14.7458-33.3662,22.3446-49.8438
			c31.547-68.4081,66.4376-133.7728,113.8544-187.7389c9.782,73.6232-19.5635,162.8149-72.5569,253.5378
			c-3.818,6.5363-7.7546,13.0803-11.8124,19.6272c41.6742,97.5932,88.8617,188.8931,116.5385,285.8948
			c10.9225,38.2871-9.3362,26.916-32.3447,7.6782c13.3737,37.8319,30.0823,70.9634,68.4409,73.7004
			c18.3469-42.5911-18.074-110.5636-43.1112-163.1541c-27.9757-71.7954-63.9873-137.7396-97.3331-205.6213
			c1.782-2.3069,3.5374-4.6139,5.2808-6.9208c82.0361-108.5534,121.436-217.0507,118.2339-325.4926l39.5807-31.3148
			c-8.7834,105.0615-25.5182,211.1196-108.9838,325.4868c24.2179,74.8057,72.4847,129.6649,135.0676,148.623
			c-45.5881-38.521-85.7606-85.1559-104.1533-138.1232c93.2111-125.881,105.3169-251.1315,118.3652-376.3905
			c1.8608-2.2915,3.7979-4.5398,5.8036-6.7471c60.9305-67.0582,186.8512-95.2699,264.1952-81.8417
			c-41.4077,46.4698-103.074,80.077-186.3835,92.476c145.665-3.3977,281.1685-24.8674,354.9401-156.0569
			c-58.9874,10.7625-127.0447,28.8113-186.3705,17.7034c-104.2961,9.8458-206.2778,43.9355-247.2112,81.5999
			c-5.5544,5.1104-12.8291,11.4597-21.026,18.2113c-25.672,21.1455-60.4689,46.2721-80.442,49.9277
			c-1.8746-6.0128,0.5935-15.3263,4.5583-24.6837c5.3855-12.7104,13.5374-25.5024,17.3645-30.2151
			c67.6931-83.3474,139.0465-129.6774,228.7603-190.3184c49.5345-36.8367,162.8157-18.6279,215.5425-11.557
			c7.9645,1.0681,18.2107,2.5212,26.136,4.5328C2001.8666,321.5092,1992.5369,327.3078,1981.4779,332.3127z M1307.6129,1408.6442
			c-55.8452-171.7773-9.301-303.5629,11.2168-441.824l-0.0376-1.5154C1339.2953,1103.2223,1364.4078,1237.0972,1307.6129,1408.6442z
			"/>
		<linearGradient id="SVGID_18_" gradientUnits="userSpaceOnUse" x1="519.5287" y1="797.7542" x2="2102.3462" y2="797.7542">
			<stop  offset="0" style="stop-color:#009E54"/>
			<stop  offset="0.2" style="stop-color:#FDE92B"/>
			<stop  offset="0.4" style="stop-color:#EB2D2E"/>
			<stop  offset="0.6" style="stop-color:#E91388"/>
			<stop  offset="0.8" style="stop-color:#333391"/>
			<stop  offset="1" style="stop-color:#00A8DE"/>
		</linearGradient>
		<path fill="url(#SVGID_18_)" d="M763.4294,28.3162c28.3738,66.9995,58.7363,135.3672,159.9324,147.735
			c51.3553,31.287,89.0839,79.9407,125.5803,127.0026c21.8953,28.2339,44.4742,57.3499,70.0267,82.8846
			c-16.5598,0.9739-44.3123,5.2645-48.6134,22.8729c-1.9132,7.8318,1.2983,17.0131,9.5452,27.2887
			c40.0067,49.8485,72.1816,95.4348,98.3633,139.3638c27.7124,46.4975,48.3408,90.5421,62.6559,133.8752
			c-23.8923-33.9152-46.8881-59.3478-77.599-77.6869l-14.4449-8.6256l9.0172,14.2037c13.9652,21.9982,30.9113,46.45,48.8525,72.3377
			c31.191,45.006,66.5436,96.0171,91.5106,142.5248c3.9657,7.3868,7.5969,14.5129,10.7925,21.1806l3.6377,7.5898l3.5878-7.6138
			c4.9662-10.5387,10.6183-21.5458,17.2798-33.65c24.949-45.3344,57.8824-93.9706,86.9392-136.8815
			c15.7892-23.3175,30.7026-45.3417,43.4915-65.4875l9.016-14.2029l-14.444,8.6248c-30.7103,18.3381-53.703,43.764-77.5869,77.6667
			c18.896-57.1248,48.9589-116.0147,91.415-179.2004c20.2924-30.2004,43.0565-60.9542,69.5938-94.0188
			c4.9473-6.1648,8.1079-11.9694,9.3942-17.2527c1.595-6.551,0.4359-12.3773-3.4454-17.3169
			c-9.1006-11.5819-31.2611-14.7567-45.0309-15.5836c25.5564-25.5372,48.1416-54.6597,70.0399-82.897
			c36.4957-47.0603,74.2239-95.7128,125.5759-126.9985c101.1965-12.3671,131.5599-80.7373,159.9325-147.7345
			c-0.2086,21.764-2.2678,41.9562-6.2306,61.2902c-5.6781,27.7029-15.0876,52.9266-28.7664,77.1123
			c-14.6886,25.9712-34.5925,50.726-59.1592,73.5773c-18.8488,17.5327-40.9841,34.4562-66.0759,50.5352
			c2.3677-2.1512,4.7329-4.2906,7.0807-6.4143c36.5504-33.0613,74.3455-67.2479,82.8761-111.0209l1.7286-8.8702l-7.728,4.6844
			c-19.5704,11.8621-38.8458,15.5846-59.2529,19.5256c-3.2319,0.6241-6.5737,1.2695-9.8711,1.942l-0.9426,0.1925l-0.7523,0.6
			c-50.3323,40.1527-91.1777,89.8036-127.8195,137.4773l-0.321,0.4177l-0.202,0.4867c-6.5077,15.6825-4.184,33.5209,6.2158,47.7179
			c3.4871,4.7603,7.6636,8.6816,12.0779,11.3408l2.2833,1.3752l2.1484-1.5778c5.5491-4.0752,11.1-8.1748,16.6598-12.2813
			c53.2816-39.3517,108.3772-80.0431,170.3704-104.8527c90.4442-36.1981,111.8512-80.6194,134.5154-127.6488
			c0.9258-1.921,1.8577-3.8547,2.7991-5.7968c-4.542,18.8672-10.0413,34.6028-17.2588,49.7887
			c-13.0339,27.4235-31.9763,52.5083-57.9092,76.6875l-10.1987,9.5089l13.6885-2.6566c23.546-4.5698,45.8475-6.8867,66.2853-6.8862
			c13.424,0,26.1587,1.011,37.8508,3.005c10.3898,1.7719,20.4612,2.6702,29.9346,2.6702c42.2715,0,75.8136-17.4525,102.0187-53.2253
			c-0.3706,2.0778-0.7405,4.1786-1.1152,6.3059c-6.7275,38.2036-13.6841,77.7075-47.4473,103.5386
			c-36.5502,27.9673-89.9319,48.2335-158.6625,60.2355c-40.4875,7.0699-81.1571,10.4031-115.8451,12.0546
			c43.1792-9.415,88.8947-21.4235,136.9698-39.3679l1.4578-0.5442l0.7069-1.386c4.0835-8.0076,7.4891-13.7139,14.1569-14.2095
			c1.1329-0.0841,2.1842-0.1268,3.125-0.1268c6.3741,0,8.3491,1.7211,12.3679,6.6395l1.8131,2.219l2.6842-1.0027
			c1.0187-0.3806,25.1023-9.3898,38.4258-15.4202c12.6432-5.7219,21.8555-11.9313,28.1636-18.9832l4.401-4.9198l-6.3981-1.6241
			c-7.7434-1.9655-17.355-3.3821-26.5884-4.6202c-3.0348-0.4069-6.2701-0.8508-9.6829-1.3192
			c-29.2054-4.0071-69.2036-9.495-108.6659-9.4944c-46.3873,0.0005-79.1119,7.547-100.0389,23.0708
			c-4.1316,2.7928-8.2246,5.5553-12.2798,8.2924c-85.1135,57.4471-152.3413,102.8223-217.2721,182.7686
			c-4.1094,5.0602-12.3927,18.0781-17.9425,31.1763c-5.064,11.9519-6.6433,21.1821-4.694,27.4349l1.0544,3.382l3.4845-0.6379
			c23.9294-4.38,65.502-36.9675,82.2648-50.775c7.6394-6.2921,15.1653-12.8107,21.1915-18.3552
			c19.4714-17.9166,54.4152-35.8079,98.3939-50.3783c44.3512-14.6938,96.1543-25.3881,145.9291-30.13
			c12.6077,2.3218,25.8967,3.4508,40.6022,3.4508c38.5394,0,78.1907-7.85,116.5363-15.4414
			c7.4213-1.4692,14.5507-2.8807,21.5726-4.2163c-33.274,55.4437-80.4735,93.6512-144.0323,116.6577
			c-28.412,10.2844-60.1591,17.655-97.0553,22.5333c-17.8259,2.3569-36.7726,4.1331-57.8307,5.3969
			c58.2885-15.8856,105.6462-43.9912,141.1874-83.8774l4.7863-5.3715l-7.0885-1.2306c-12.683-2.2021-26.6954-3.3186-41.6483-3.3186
			c-71.1252,0-172.2461,27.0409-226.1915,86.4113c-2.0752,2.2838-4.0764,4.6106-5.9481,6.9154l-0.7502,0.9238l-0.1233,1.1835
			l-0.4493,4.3165c-6.3202,60.7225-12.8557,123.5125-29.1273,185.2004c-8.7412,33.1396-19.5215,63.3598-32.9563,92.3875
			c-15.076,32.5735-33.0889,62.8373-55.0682,92.5202l-1.257,1.6975l0.6927,1.995c14.8154,42.6652,44.6899,84.7768,88.9218,125.4031
			c-22.1122-10.0038-42.2074-24.9584-59.9386-44.6381c-22.3298-24.7839-39.7122-55.6888-51.6813-91.8778
			c84.7709-116.9722,100.1091-225.0988,108.5322-325.8527l0.7688-9.1956l-7.2367,5.7254l-39.5806,31.3148l-1.5757,1.2466
			l0.0592,2.0084c1.5787,53.4637-7.4764,107.7065-26.9139,161.2208c-19.4771,53.6235-49.9301,108.0413-90.5129,161.7421
			c-1.9956,2.6409-3.6654,4.8294-5.255,6.8875l-1.5233,1.9721l1.0988,2.2365c8.3131,16.9233,16.929,33.9979,25.2612,50.5102
			c25.0708,49.6851,50.9954,101.0616,71.9351,154.7998l0.0529,0.1356l0.0625,0.1315c2.1385,4.4921,4.3146,9.0018,6.6183,13.7765
			c22.8341,47.3247,51.1201,105.9481,37.4943,143.3953c-15.1293-1.7849-27.5353-8.9764-37.8517-21.9199
			c-8.0988-10.1609-14.2571-22.9626-19.2596-35.5667c9.2509,6.7179,15.8683,9.8038,20.7903,9.8038
			c3.9624,0,6.2435-1.9204,7.4591-3.5317c3.4752-4.6052,3.2355-12.9319-0.7775-26.9988
			c-20.1631-70.6675-50.0577-137.0278-81.7075-207.2845c-11.317-25.121-23.0104-51.0786-34.1832-77.1758
			c3.6583-5.9344,7.2767-11.9627,10.772-17.9467c57.0778-97.7148,82.3441-186.2667,73.0681-256.0821l-1.1595-8.7264l-5.8104,6.6131
			c-50.9259,57.9598-86.449,127.9161-114.4817,188.7037c-6.6459,14.4105-13.5464,29.8036-22.375,49.9109l-0.5021,1.1433
			l0.2377,1.2258c20.6294,106.4477,40.7202,219.8155,40.1199,332.6431c-0.3148,59.1412-6.1633,113.2297-17.8799,165.3564
			c-12.4454,55.3695-31.1023,106.8973-56.9634,157.271c-26.4166-50.6349-45.0013-102.3344-56.7811-157.937
			c-10.7021-50.5153-15.5111-103.1771-14.7015-160.995c1.5078-107.6869,22.9209-218.036,43.629-324.7521l2.2479-11.5894
			l0.2377-1.2258l-0.5021-1.1433c-4.9935-11.3727-9.408-21.3184-13.4954-30.4048
			c-32.4574-72.154-69.8665-147.3173-123.3622-208.2092l-5.8104-6.6138l-1.1598,8.7269
			c-9.5889,72.1561,17.5917,163.9373,78.604,265.4214c1.7716,2.9467,3.5283,5.8334,5.2375,8.6065
			c-11.1744,26.1021-22.8702,52.0645-34.1888,77.19c-31.6481,70.2533-61.541,136.6108-81.7056,207.2765
			c-4.0135,14.0652-4.2538,22.3914-0.7789,26.9965c1.2158,1.6112,3.4968,3.5319,7.4597,3.5319
			c4.923,0,11.5399-3.0854,20.7898-9.8032c-5.0009,12.6019-11.1575,25.4006-19.2579,35.5638
			c-10.3168,12.9438-22.7227,20.1367-37.8521,21.9237c-13.6241-37.4478,14.6593-96.068,37.4908-143.3904
			c2.3052-4.778,4.4827-9.2909,6.6226-13.7859l0.0625-0.1315l0.0529-0.1356c20.941-53.7377,46.864-105.1115,71.9331-154.7937
			c8.3323-16.5131,16.9484-33.5884,25.2621-50.5128l1.0988-2.2365l-1.5233-1.972c-1.1206-1.451-2.2291-2.9017-3.3344-4.3525
			c-41.2338-54.1216-72.1781-108.9681-91.9735-163.0156c-19.7534-53.9321-28.963-108.5995-27.3732-162.4837l0.0592-2.0084
			l-1.5757-1.2465l-39.5808-31.3148l-7.2361-5.725l0.7682,9.1948c0.4341,5.1983,0.8573,10.0345,1.2933,14.7854
			c10.2903,112.0937,32.5033,207.9696,107.2378,311.0694c-11.9698,36.1884-29.3516,67.0921-51.6801,91.8743
			c-17.7311,19.6794-37.8262,34.6334-59.9388,44.6369c44.2292-40.6223,74.103-82.731,88.9224-125.3975l0.6931-1.9954l-1.2571-1.6975
			c-83.301-112.4993-101.3273-223.9329-113.7246-337.6987c-1.1912-10.9323-2.3492-22.0521-3.4689-32.8057l-0.4084-3.9225
			l-0.1233-1.1833l-0.75-0.9235c-3.5873-4.4177-7.5569-8.8063-11.7986-13.0436c-55.5139-55.4591-150.6675-80.2833-220.3433-80.2833
			c-14.9523,0-28.9642,1.1165-41.6467,3.3185l-7.0887,1.2308l4.7867,5.3715c35.5427,39.8861,82.9005,67.9915,141.1891,83.877
			c-21.0582-1.2637-40.0051-3.0398-57.831-5.3967c-36.8962-4.8783-68.6433-12.2491-97.0554-22.5334
			c-63.5585-23.0063-110.7583-61.2137-144.0336-116.6576c7.0223,1.3358,14.1522,2.7473,21.5736,4.2167
			c38.3433,7.5913,77.9923,15.4409,116.5356,15.4409c14.7061,0,27.996-1.1292,40.6043-3.4507
			c49.7743,4.7419,101.5775,15.4362,145.9286,30.1298c43.9791,14.5707,78.9229,32.4619,98.3942,50.3784
			c7.2977,6.7147,16.3998,14.5201,25.6299,21.9785c19.6626,15.8887,55.9192,43.1422,77.8221,47.1519l3.4847,0.6379l1.0542-3.3823
			c1.3116-4.2079,1.0593-9.5475-0.7709-16.3235c-4.3417-16.0728-16.58-35.7806-21.8645-42.2874
			c-64.923-79.9364-132.1388-125.3069-217.2371-182.7477c-4.0662-2.7445-8.1697-5.5144-12.3127-8.3152
			c-20.928-15.5223-53.6532-23.069-100.0375-23.069c-39.4637,0-79.4695,5.4885-108.6806,9.4962
			c-3.4088,0.4677-6.6406,0.911-9.6719,1.3175c-9.2319,1.2377-18.8423,2.6542-26.5877,4.6202l-6.3992,1.6244l4.4025,4.9199
			c6.3101,7.0516,15.5223,13.2611,28.1636,18.9828c13.3237,6.0308,37.4052,15.0398,38.424,15.4204l2.6841,1.0029l1.8132-2.2192
			c4.0189-4.9187,5.994-6.6398,12.3696-6.6398c0.9381,0,1.989,0.0427,3.1237,0.1268c6.6675,0.4952,10.0744,6.2019,14.1598,14.2098
			l0.7069,1.3859l1.4575,0.5439c48.0759,17.9456,93.7873,29.9531,136.9665,39.3678c-34.688-1.6516-75.3538-4.9846-115.8422-12.0547
			c-68.7321-12.0018-122.115-32.2679-158.6662-60.2352c-33.7603-25.8319-40.7177-65.3381-47.4463-103.5437
			c-0.3744-2.1259-0.744-4.2244-1.1145-6.3007c26.2051,35.7728,59.7474,53.2252,102.0197,53.2252
			c9.4727,0,19.5438-0.8983,29.9333-2.67c11.6942-1.9944,24.4291-3.0054,37.8517-3.0051
			c20.4404,0.0001,42.7418,2.317,66.2852,6.8862l13.6879,2.6566l-10.1979-9.5089c-25.9319-24.1792-44.8738-49.264-57.9084-76.6877
			c-7.2177-15.1855-12.7176-30.9211-17.2605-49.7885c0.9429,1.9451,1.8757,3.8805,2.803,5.8044
			c22.6646,47.0267,44.0721,91.4453,134.5156,127.6415c61.9925,24.8102,117.09,65.5032,170.3735,104.8563
			c5.5581,4.105,11.1073,8.2032,16.6548,12.2775l2.1486,1.5779l2.2833-1.3756c2.8463-1.7147,5.5869-3.9469,8.1456-6.6345
			c10.2493-10.7646,19.0568-30.9531,10.1473-52.4238l-0.202-0.4867l-0.321-0.4178
			c-36.6509-47.6816-77.5026-97.3379-127.8201-137.4773l-0.7521-0.6l-0.9427-0.1924c-3.2975-0.6729-6.6396-1.3182-9.8719-1.9426
			c-20.4064-3.9413-39.681-7.6639-59.25-19.5256l-7.7275-4.6842l1.7279,8.8699c8.5275,43.7695,46.3185,77.9543,82.8652,111.0133
			c2.3525,2.1279,4.7209,4.2703,7.0931,6.4259c-25.0942-16.0803-47.2307-33.0045-66.0811-50.5388
			c-24.5665-22.8513-44.4704-47.6063-59.1589-73.5773c-13.679-24.1859-23.0886-49.4097-28.7667-77.1125
			C765.6974,70.2726,763.6381,50.0801,763.4294,28.3162 M1314.8224,966.5742c-4.057,27.2787-9.2263,54.8423-14.2262,81.5022
			c-20.5768,109.7222-41.8545,223.1796,3.2128,361.8044l3.7694,11.5946l3.8318-11.574
			c53.9017-162.8077,34.0361-294.5507,14.8246-421.9561c-1.1664-7.7352-2.3335-15.4756-3.4862-23.2287l-7.9552,0.6877
			L1314.8224,966.5742 M1862.1763,9.3099c-31.9484,74.339-56.8942,150.0554-165.0006,162.8732
			c-85.949,51.9584-131.7584,148.7936-203.8207,217.4891c0.2085-0.001,0.4194-0.0015,0.6315-0.0015
			c20.9729,0,59.1926,4.8473,53.4998,28.23c-1.098,4.5107-3.8217,9.7072-8.6272,15.6954
			c-25.6978,32.0186-49.0161,63.3678-69.7944,94.2915c-46.8621,69.7429-80.7588,137.3146-99.5685,205.4696
			c27.6377-42.0319,53.4679-75.7925,91.1115-98.2706c-36.9044,58.1346-92.2926,133.0527-130.558,202.5842
			c-6.3119,11.4691-12.1743,22.7972-17.3937,33.8735c-3.3617-7.0138-7.0079-14.1398-10.8755-21.3438
			c-39.0977-72.83-101.6958-153.9733-140.5104-215.1142c37.6431,22.4786,63.4703,56.2394,91.1102,98.2698
			c-14.6909-53.2315-38.5966-106.1082-70.6803-159.9405c-27.2083-45.6514-60.2931-91.9895-98.6797-139.8196
			c-8.0138-9.985-10.259-17.7771-8.7791-23.8358c4.0087-16.4102,35.3759-20.0897,53.6455-20.0897
			c0.2133,0,0.4216,0.0005,0.6312,0.0015c-72.0601-68.6954-117.8676-165.5305-203.8196-217.4888
			C816.5954,159.3652,791.6462,83.6489,759.6979,9.3099c-4.0246,109.6049,33.5685,214.14,193.346,303.7904
			c-44.5231-44.8438-104.5294-84.625-115.4092-140.4695c23.4561,14.2179,46.9271,17.179,70.3956,21.9668
			c49.4969,39.4849,89.8929,88.3269,127.1429,136.7882c7.6885,18.5284,0.9452,37.3199-9.3496,48.1324
			c-2.3012,2.4171-4.7781,4.4393-7.3129,5.9664c-59.4104-43.6312-119.0102-90.049-187.9098-117.6233
			C721.3,224.1182,714.1202,167.4705,682.1346,110.6262c9.32,54.2875,25.4708,104.1,82.1025,156.9045
			c-22.2827-4.3245-45.0604-6.9594-67.0474-6.9596c-13.2197-0.0002-26.1514,0.952-38.524,3.0621
			c-10.3085,1.7581-20.05,2.6132-29.2608,2.6132c-50.2726,0-84.7764-25.4678-109.8761-68.5946
			c9.9531,44.8894,10.7958,99.3429,53.9865,132.3904c84.6704,64.7861,235.1567,73.015,323.7894,74.5886
			c-66.9156-12.9103-122.64-26.277-182.4181-48.5907c-4.2669-8.3638-8.5373-15.7208-17.4267-16.381
			c-1.235-0.0918-2.3704-0.1379-3.42-0.1379c-7.9452,0-10.9988,2.6404-15.467,8.109c0,0-24.8204-9.2729-38.1744-15.3175
			c-11.0573-5.0049-20.3873-10.8036-26.8321-18.0059c7.925-2.0117,18.1715-3.465,26.135-4.5327
			c28.2576-3.7896,73.9143-10.7784,117.821-10.7784c38.0258,0,74.7365,5.2386,97.7261,22.3348
			c89.7075,60.6415,161.0629,106.9713,228.7563,190.319c4.912,6.0477,16.9447,25.3969,21.1079,40.8086
			c1.4691,5.439,1.9667,10.3912,0.8137,14.0902c-18.8458-3.4501-50.9027-26.0254-76.0283-46.3286
			c-9.9988-8.0793-18.903-15.7999-25.4354-21.8108c-40.9332-37.6644-142.9161-71.7538-247.2109-81.5996
			c-13.1125,2.4548-26.652,3.4857-40.4247,3.4857c-48.5452,0-99.9978-12.8049-145.9485-21.189
			C644.6529,530.2952,780.1536,551.765,925.821,555.1628c-83.3129-12.399-144.9771-46.0062-186.3862-92.4758
			c12.5378-2.1768,26.3553-3.2595,40.9626-3.2595c72.7697,0,165.2125,26.861,217.5161,79.1132
			c4.0946,4.0903,7.9467,8.3341,11.5204,12.7351c1.2762,12.2488,2.5446,24.4978,3.8794,36.7469
			c12.3152,113.0131,30.3889,226.0708,114.4865,339.6458c-18.396,52.964-58.5648,99.5974-104.1546,138.118
			c62.5856-18.9581,110.8486-73.8155,135.0671-148.6184c-79.5592-109.0187-98.4888-210.4833-107.6919-310.7358
			c-0.4517-4.9202-0.88-9.8375-1.2906-14.7527l39.5809,31.3148c-3.2244,109.2894,36.8112,218.6367,120.1631,328.0414
			c1.1106,1.4577,2.2246,2.9154,3.3506,4.3734c-33.3453,67.8818-69.3538,133.8217-97.332,205.6177
			c-25.0369,52.594-61.4575,120.5651-43.1121,163.1592c38.3579-2.7427,55.0704-35.8744,68.4385-73.7019
			c-11.8671,9.9233-23.005,17.754-29.5078,17.754c-6.1029,0-8.1234-6.8959-2.8345-25.4309
			c27.6804-97.0045,74.8676-188.304,116.5424-285.9006c-2.1355-3.4448-4.2343-6.8885-6.3038-10.3309
			c-56.4587-93.9102-88.1854-186.6933-78.0669-262.8336c51.8949,59.0698,88.7921,131.7886,122.7192,207.2102
			c4.5366,10.0848,9.0219,20.2165,13.4808,30.3719c-43.0454,222.0842-88.3669,441.1909,27.4285,660.6335l2.0123,4.2406
			c115.7974-219.4435,81.7817-442.7878,38.7421-664.8712c7.3387-16.7142,14.7458-33.3663,22.3448-49.8438
			c31.5469-68.4081,66.4375-133.7727,113.8541-187.7388c9.7821,73.6232-19.5634,162.8148-72.5569,253.5377
			c-3.8179,6.5365-7.7545,13.0802-11.8123,19.6273c41.6742,97.5931,88.8617,188.8931,116.5386,285.8948
			c5.2878,18.536,3.2673,25.433-2.8352,25.433c-6.5027,0-17.6403-7.8306-29.5096-17.7549
			c13.3735,37.8322,30.0823,70.9636,68.4408,73.7007c18.3472-42.5911-18.0739-110.5637-43.111-163.1542
			c-27.9758-71.7954-63.9875-137.7396-97.3331-205.6213c1.7819-2.3071,3.5372-4.614,5.2806-6.9208
			c82.0363-108.5533,121.436-217.0506,118.2339-325.4927l39.5807-31.3148c-8.7833,105.0615-25.5182,211.1198-108.9838,325.4869
			c24.2179,74.8056,72.4847,129.6649,135.0677,148.6231c-45.5881-38.521-85.7606-85.156-104.1534-138.1233
			c93.2111-125.881,105.3169-251.1317,118.3652-376.3906c1.8608-2.2915,3.798-4.5398,5.8036-6.7471
			c51.0494-56.1833,147.7321-85.1013,223.2311-85.1013c14.6135,0,28.4213,1.0819,40.9641,3.2596
			c-41.4077,46.4697-103.074,80.077-186.3835,92.476c145.665-3.3977,281.1686-24.8674,354.9401-156.0568
			c-45.947,8.3831-97.4078,21.1891-145.948,21.1891c-13.7761,0-27.3074-1.0302-40.4225-3.4858
			c-104.2963,9.8458-206.278,43.9354-247.2112,81.5999c-5.5544,5.1104-12.829,11.4597-21.0261,18.2112
			c-25.6719,21.1456-60.4688,46.2721-80.4419,49.928c-1.8745-6.0129,0.5936-15.3265,4.5583-24.6837
			c5.3855-12.7104,13.5374-25.5026,17.3644-30.2152c67.6931-83.3473,139.0466-129.6774,228.7604-190.3184
			c22.9866-17.0941,59.7057-22.3346,97.7256-22.335c43.9106-0.0006,89.558,6.9883,117.817,10.7781
			c7.9644,1.0679,18.2106,2.521,26.1357,4.5327c-6.4426,7.2023-15.7725,13.0009-26.8314,18.0059
			c-13.354,6.0441-38.1764,15.3173-38.1764,15.3173c-4.4677-5.4678-7.5206-8.1086-15.4656-8.1088
			c-1.0503-0.0001-2.1855,0.046-3.4214,0.1379c-8.8875,0.6606-13.1587,8.0177-17.4237,16.381
			c-59.7809,22.3137-115.5048,35.6801-182.4177,48.5907c88.6342-1.5736,239.1168-9.8024,323.785-74.5886
			c43.1958-33.0477,44.0344-87.5012,53.988-132.3904c-25.0979,43.1239-59.6074,68.5945-109.8751,68.5945
			c-9.2141,0-18.9492-0.8545-29.2621-2.6133c-12.3702-2.1095-25.3059-3.0618-38.5233-3.0619
			c-21.9889-0.0002-44.7627,2.6346-67.0474,6.9596c56.634-52.8041,72.7838-102.6171,82.1002-156.9048
			c-31.9806,56.8442-39.1648,113.4919-148.4606,157.2351c-68.9026,27.5746-128.5013,73.9924-187.9117,117.6235
			c-3.9227-2.3629-7.7106-5.9041-10.9149-10.2782c-8.1279-11.0956-12.4957-27.5605-5.7482-43.821
			c37.2468-48.4611,77.6469-97.3027,127.1425-136.7878c23.4702-4.7877,46.9404-7.7484,70.3977-21.9666
			c-10.8833,55.8444-70.8851,95.6255-115.4137,140.4692C1828.6091,223.4504,1866.2007,118.9148,1862.1763,9.3099L1862.1763,9.3099z
			 M1307.6129,1408.6442c-55.8452-171.7773-9.301-303.5629,11.2169-441.824l-0.0377-1.5154
			C1339.2952,1103.2223,1364.408,1237.0973,1307.6129,1408.6442L1307.6129,1408.6442z"/>
	</g>
	<g>
		<radialGradient id="SVGID_19_" cx="1785.5426" cy="631.7396" r="116.1626" gradientUnits="userSpaceOnUse">
			<stop  offset="0" style="stop-color:#FCF3DD"/>
			<stop  offset="0" style="stop-color:#FDEDC1"/>
			<stop  offset="0" style="stop-color:#FFE18A"/>
			<stop  offset="0.5506" style="stop-color:#FFCD03"/>
			<stop  offset="0.668" style="stop-color:#F7C50D"/>
			<stop  offset="1" style="stop-color:#E2B124"/>
		</radialGradient>
		<path fill="url(#SVGID_19_)" d="M1816.7023,601.2708c-3.6086,11.5264-11.2756,21.84-26.6606,22.7983
			c-67.9666,4.2327-118.8811-47.7918-146.7963-74.4206c24.4015,47.6108,84.1542,110.3914,170.8517,107.0518
			c-32.2297,25.1841-73.9561,40.2656-120.0588,50.6913c104.7122,21.9786,187.5662-9.9601,233.8018-132.2258
			c-29.9492,24.2806-58.1292,39.9653-85.0515,46.5074C1828.3231,625.1879,1818.4364,609.3575,1816.7023,601.2708z"/>
		<linearGradient id="SVGID_20_" gradientUnits="userSpaceOnUse" x1="1643.2454" y1="631.7396" x2="1927.84" y2="631.7396">
			<stop  offset="0" style="stop-color:#009E54"/>
			<stop  offset="0.2" style="stop-color:#FDE92B"/>
			<stop  offset="0.4" style="stop-color:#EB2D2E"/>
			<stop  offset="0.6" style="stop-color:#E91388"/>
			<stop  offset="0.8" style="stop-color:#333391"/>
			<stop  offset="1" style="stop-color:#00A8DE"/>
		</linearGradient>
		<path fill="url(#SVGID_20_)" d="M1662.5037,573.2341c28.5094,25.5616,68.9952,55.0783,119.7228,55.0783
			c2.675,0,5.3881-0.0845,8.0638-0.2511c11.7161-0.7298,20.7017-6.4113,26.3998-16.5739
			c4.3663,7.3312,11.9609,14.6871,22.0012,14.6871c1.667,0,3.3632-0.2067,5.0416-0.6146
			c23.7292-5.7662,48.326-18.277,74.8712-38.1235c-7.8114,18.3392-16.6823,34.7158-26.4572,48.8257
			c-11.7268,16.9275-25.1055,31.0961-39.7645,42.112c-14.1494,10.633-29.9401,18.6634-46.9331,23.8682
			c-16.4399,5.0353-34.5338,7.5883-53.7788,7.5883c-12.1262,0-24.9648-1.0135-38.3439-3.0215
			c44.1942-11.595,77.3064-26.6981,103.2333-46.9572l9.759-7.6256l-12.3759,0.4767c-2.1515,0.0829-4.327,0.1249-6.4664,0.1249
			c-19.1907,0-38.0315-3.3567-55.9991-9.9769c-16.0612-5.9178-31.5219-14.4653-45.9528-25.4053
			C1689.4979,605.2963,1674.6079,589.9071,1662.5037,573.2341 M1643.2454,549.6484
			c23.7745,46.3875,81.1162,107.1797,164.2313,107.1797c2.192,0,4.3926-0.0421,6.6204-0.1279
			c-32.2297,25.1841-73.9561,40.2656-120.0588,50.6913c20.0426,4.2068,39.2949,6.4392,57.6323,6.4392
			c77.4663,0,138.7836-39.8018,176.1694-138.665c-29.9492,24.2806-58.1292,39.9653-85.0515,46.5074
			c-1.41,0.3426-2.7776,0.5015-4.0972,0.5015c-12.2191,0-20.424-13.6053-21.989-20.9039
			c-3.6086,11.5264-11.2756,21.84-26.6606,22.7983c-2.63,0.1638-5.2366,0.2434-7.8152,0.2434
			C1718.1671,624.3125,1670.0803,575.2468,1643.2454,549.6484L1643.2454,549.6484z"/>
	</g>
	<g>
		<radialGradient id="SVGID_21_" cx="1736.4347" cy="746.7188" r="91.8859" gradientUnits="userSpaceOnUse">
			<stop  offset="0" style="stop-color:#FCF3DD"/>
			<stop  offset="0" style="stop-color:#FDEDC1"/>
			<stop  offset="0" style="stop-color:#FFE18A"/>
			<stop  offset="0.5506" style="stop-color:#FFCD03"/>
			<stop  offset="0.668" style="stop-color:#F7C50D"/>
			<stop  offset="1" style="stop-color:#E2B124"/>
		</radialGradient>
		<path fill="url(#SVGID_21_)" d="M1632.0771,669.2879c17.6823,43.6435,36.9041,86.7718,104.8992,113.5696
			c-16.6593,16.7123-54.5582,23.7355-84.7198,1.0993c40.3396,62.6647,137.3969,52.8028,188.5359-34.8529
			C1762.1049,782.3337,1672.4572,733.1647,1632.0771,669.2879z"/>
		<linearGradient id="SVGID_22_" gradientUnits="userSpaceOnUse" x1="1632.0771" y1="746.7188" x2="1840.7924" y2="746.7188">
			<stop  offset="0" style="stop-color:#009E54"/>
			<stop  offset="0.2" style="stop-color:#FDE92B"/>
			<stop  offset="0.4" style="stop-color:#EB2D2E"/>
			<stop  offset="0.6" style="stop-color:#E91388"/>
			<stop  offset="0.8" style="stop-color:#333391"/>
			<stop  offset="1" style="stop-color:#00A8DE"/>
		</linearGradient>
		<path fill="url(#SVGID_22_)" d="M1649.1073,698.22c36.3439,40.1219,88.6384,65.5728,138.3521,65.5728
			c15.0586,0,29.7067-2.2939,43.6921-6.8312c-12.6478,18.8219-28.2161,34.3062-45.4966,45.1656
			c-18.7622,11.7905-39.1703,18.0226-59.0182,18.0226c-14.4631,0-27.9407-3.2424-40.0585-9.6371
			c-6.6481-3.5083-12.7012-7.8755-18.1154-13.0606c8.4237,3.2099,17.3711,4.8654,26.5415,4.8654
			c17.6715,0,34.4209-6.2191,44.8048-16.636l4.299-4.3126l-5.6652-2.2327c-29.9878-11.8186-52.7699-27.9219-69.6481-49.2299
			C1660.8502,719.8763,1654.6123,709.3496,1649.1073,698.22 M1632.0771,669.2879c17.6823,43.6435,36.9041,86.7718,104.8992,113.5696
			c-9.1675,9.1967-24.7695,15.4599-41.9719,15.4599c-14.058,0-29.1841-4.1809-42.7479-14.3606
			c17.161,26.6585,44.5919,40.1929,74.3802,40.1929c40.2335,0,84.7719-24.6801,114.1556-75.0458
			c-17.453,7.3704-35.4587,10.6888-53.333,10.6888C1724.7471,759.7928,1663.5007,718.9967,1632.0771,669.2879L1632.0771,669.2879z"
			/>
	</g>
	<g>
		<radialGradient id="SVGID_23_" cx="1692.9081" cy="858.7958" r="84.7426" gradientUnits="userSpaceOnUse">
			<stop  offset="0" style="stop-color:#FCF3DD"/>
			<stop  offset="0" style="stop-color:#FDEDC1"/>
			<stop  offset="0" style="stop-color:#FFE18A"/>
			<stop  offset="0.5506" style="stop-color:#FFCD03"/>
			<stop  offset="0.668" style="stop-color:#F7C50D"/>
			<stop  offset="1" style="stop-color:#E2B124"/>
		</radialGradient>
		<path fill="url(#SVGID_23_)" d="M1603.6205,778.8563c0.7285,31.6794,16.8657,73.3411,56.0552,100.7432
			c-14.1848,14.5343-28.1665,10.1402-50.0173,1.2017c37.334,54.2344,85.6847,83.8991,172.5374,27.6985
			C1712.1283,904.2592,1621.3842,833.035,1603.6205,778.8563z"/>
		<linearGradient id="SVGID_24_" gradientUnits="userSpaceOnUse" x1="1603.6205" y1="858.7958" x2="1782.1957" y2="858.7958">
			<stop  offset="0" style="stop-color:#009E54"/>
			<stop  offset="0.2" style="stop-color:#FDE92B"/>
			<stop  offset="0.4" style="stop-color:#EB2D2E"/>
			<stop  offset="0.6" style="stop-color:#E91388"/>
			<stop  offset="0.8" style="stop-color:#333391"/>
			<stop  offset="1" style="stop-color:#00A8DE"/>
		</linearGradient>
		<path fill="url(#SVGID_24_)" d="M1611.1855,803.6252c13.0216,20.8507,34.0048,42.8088,59.7172,61.986
			c32.9755,24.5942,68.4894,40.8088,99.3322,45.6014c-26.6823,15.8135-50.1798,23.5228-71.5764,23.5228
			c-17.3325,0-32.9889-5.1005-47.8634-15.5928c-10.2112-7.2029-20.0776-17.0009-29.9453-29.7649
			c6.472,2.2071,12.5386,3.665,18.2789,3.665c8.8801,0,16.3187-3.384,23.4097-10.6495l3.2909-3.372l-3.8615-2.7
			C1633.1156,856.1472,1617.5944,828.4943,1611.1855,803.6252 M1603.6205,778.8563c0.7285,31.6794,16.8657,73.3411,56.0552,100.7432
			c-6.6198,6.7828-13.1954,9.4433-20.547,9.4433c-8.4016,0-17.8168-3.4744-29.4703-8.2416
			c23.2084,33.7144,50.6744,57.9343,89.0001,57.9343c23.3265,0,50.6759-8.9719,83.5372-30.2357
			C1712.1283,904.2592,1621.3842,833.035,1603.6205,778.8563L1603.6205,778.8563z"/>
	</g>
	<g>
		<radialGradient id="SVGID_25_" cx="1626.5665" cy="949.3904" r="68.1821" gradientUnits="userSpaceOnUse">
			<stop  offset="0" style="stop-color:#FCF3DD"/>
			<stop  offset="0" style="stop-color:#FDEDC1"/>
			<stop  offset="0" style="stop-color:#FFE18A"/>
			<stop  offset="0.5506" style="stop-color:#FFCD03"/>
			<stop  offset="0.668" style="stop-color:#F7C50D"/>
			<stop  offset="1" style="stop-color:#E2B124"/>
		</radialGradient>
		<path fill="url(#SVGID_25_)" d="M1573.7549,888.1845c-4.7133,27.8362,10.0336,78.1191,39.8383,95.8688
			c-16.5679,8.739-35.855,1.2957-61.5347-5.9308c38.3231,38.5884,95.8396,41.5295,149.0161,15.479
			C1645.8737,990.3781,1597.486,939.8747,1573.7549,888.1845z"/>
		<linearGradient id="SVGID_26_" gradientUnits="userSpaceOnUse" x1="1552.0585" y1="949.3904" x2="1701.0746" y2="949.3904">
			<stop  offset="0" style="stop-color:#009E54"/>
			<stop  offset="0.2" style="stop-color:#FDE92B"/>
			<stop  offset="0.4" style="stop-color:#EB2D2E"/>
			<stop  offset="0.6" style="stop-color:#E91388"/>
			<stop  offset="0.8" style="stop-color:#333391"/>
			<stop  offset="1" style="stop-color:#00A8DE"/>
		</linearGradient>
		<path fill="url(#SVGID_26_)" d="M1577.0027,903.5358c23.1412,42.2711,62.98,82.7382,109.4109,92.1712
			c-18.1353,7.1512-36.6384,10.8892-54.1935,10.8892c-23.7933,0-45.4121-6.6927-63.4496-19.5086
			c10.1222,2.8228,19.2377,4.9216,27.8035,4.9216c7.0719,0,13.2494-1.4451,18.8854-4.4179l6.3064-3.3264l-6.1259-3.6483
			c-12.7996-7.6226-23.8667-22.5792-31.163-42.1147C1580.1415,926.8935,1577.5471,914.485,1577.0027,903.5358 M1573.7549,888.1845
			c-4.7133,27.8362,10.0336,78.1191,39.8383,95.8688c-5.3484,2.8211-10.9806,3.9559-17.0192,3.9559
			c-12.6676,0-27.1256-4.993-44.5155-9.8867c21.9099,22.0616,50.1023,32.4737,80.1616,32.4737
			c22.5181,0,46.0798-5.8376,68.8545-16.9947C1645.8737,990.3781,1597.486,939.8747,1573.7549,888.1845L1573.7549,888.1845z"/>
	</g>
	<g>
		<radialGradient id="SVGID_27_" cx="1441.2828" cy="1252.6543" r="151.183" gradientUnits="userSpaceOnUse">
			<stop  offset="0" style="stop-color:#FCF3DD"/>
			<stop  offset="0" style="stop-color:#FDEDC1"/>
			<stop  offset="0" style="stop-color:#FFE18A"/>
			<stop  offset="0.5506" style="stop-color:#FFCD03"/>
			<stop  offset="0.668" style="stop-color:#F7C50D"/>
			<stop  offset="1" style="stop-color:#E2B124"/>
		</radialGradient>
		<path fill="url(#SVGID_27_)" d="M1396.0458,1043.6897c6.7454,54.5214,26.8087,110.6768,37.4503,151.4448
			c13.8741,53.1538,40.9332,160.9907,19.174,167.0977c-13.521,3.7948-23.7537-29.3729-32.9109-50.1245
			c12.927,55.8823,20.4542,153.9785,51.8113,149.3533c20.9381-3.0769,17.7971-106.1417,3.3887-165.3077
			C1453.8177,1209.3392,1412.6266,1133.0518,1396.0458,1043.6897z"/>
		<linearGradient id="SVGID_28_" gradientUnits="userSpaceOnUse" x1="1396.0458" y1="1252.6543" x2="1486.5199" y2="1252.6543">
			<stop  offset="0" style="stop-color:#009E54"/>
			<stop  offset="0.2" style="stop-color:#FDE92B"/>
			<stop  offset="0.4" style="stop-color:#EB2D2E"/>
			<stop  offset="0.6" style="stop-color:#E91388"/>
			<stop  offset="0.8" style="stop-color:#333391"/>
			<stop  offset="1" style="stop-color:#00A8DE"/>
		</linearGradient>
		<path fill="url(#SVGID_28_)" d="M1435.5037,1187.1681c12.9965,35.4124,26.3341,72.0096,35.569,109.9316
			c6.2341,25.5994,10.4581,59.8047,11.2992,91.4991c0.8666,32.6553-2.1407,57.3812-8.0447,66.1418
			c-1.1278,1.6735-2.251,2.6029-3.3405,2.7631c-0.5176,0.0763-1.033,0.115-1.5319,0.115c-7.9702,0-15.3164-10.3969-21.8345-30.9019
			c-6.2733-19.735-10.8826-45.7388-15.34-70.8862c-0.4723-2.6643-0.9401-5.3032-1.406-7.9137
			c5.54,10.7416,11.7792,18.6145,19.6643,18.6145c1.0723,0,2.1531-0.1508,3.2122-0.448
			c12.2054-3.4257,14.2532-25.1442,6.6394-70.4208c-5.5851-33.2128-15.238-71.7102-23.0238-101.5385
			C1436.7732,1191.8518,1436.1511,1189.5325,1435.5037,1187.1681 M1396.0458,1043.6898
			c6.7454,54.5212,26.8087,110.6766,37.4503,151.4447c13.8741,53.1538,40.9332,160.9908,19.174,167.0978
			c-0.7196,0.2019-1.4301,0.2992-2.1313,0.2992c-12.476,0-22.1096-30.7767-30.7795-50.4238
			c12.6311,54.6034,20.1073,149.5112,49.6957,149.5112c0.6931,0,1.3978-0.0521,2.1156-0.158
			c20.9381-3.0769,17.7971-106.1417,3.3887-165.3076C1453.8177,1209.3392,1412.6266,1133.0519,1396.0458,1043.6898
			L1396.0458,1043.6898z"/>
	</g>
</g>
</svg>
